<?xml version="1.0" encoding="UTF-8" standalone="no"?>
<!-- Created with Inkscape (http://www.inkscape.org/) -->

<svg
   xmlns:dc="http://purl.org/dc/elements/1.1/"
   xmlns:cc="http://creativecommons.org/ns#"
   xmlns:rdf="http://www.w3.org/1999/02/22-rdf-syntax-ns#"
   xmlns:svg="http://www.w3.org/2000/svg"
   xmlns="http://www.w3.org/2000/svg"
   xmlns:xlink="http://www.w3.org/1999/xlink"
   xmlns:sodipodi="http://sodipodi.sourceforge.net/DTD/sodipodi-0.dtd"
   xmlns:inkscape="http://www.inkscape.org/namespaces/inkscape"
   width="48px"
   height="48px"
   id="svg2108"
   sodipodi:version="0.32"
   inkscape:version="0.47pre4 r22446"
   sodipodi:docname="users.svg"
   inkscape:export-filename="/home/jimmac/src/cvs/gnome/gnome-icon-theme/48x48/stock/generic/stock_person.png"
   inkscape:export-xdpi="90"
   inkscape:export-ydpi="90"
   inkscape:output_extension="org.inkscape.output.svg.inkscape"
   version="1.1">
  <defs
     id="defs3">
    <inkscape:perspective
       sodipodi:type="inkscape:persp3d"
       inkscape:vp_x="0 : 24 : 1"
       inkscape:vp_y="0 : 1000 : 0"
       inkscape:vp_z="48 : 24 : 1"
       inkscape:persp3d-origin="24 : 16 : 1"
       id="perspective75" />
    <linearGradient
       inkscape:collect="always"
       id="linearGradient5060">
      <stop
         style="stop-color:black;stop-opacity:1;"
         offset="0"
         id="stop5062" />
      <stop
         style="stop-color:black;stop-opacity:0;"
         offset="1"
         id="stop5064" />
    </linearGradient>
    <linearGradient
       id="linearGradient5048">
      <stop
         style="stop-color:black;stop-opacity:0;"
         offset="0"
         id="stop5050" />
      <stop
         id="stop5056"
         offset="0.5"
         style="stop-color:black;stop-opacity:1;" />
      <stop
         style="stop-color:black;stop-opacity:0;"
         offset="1"
         id="stop5052" />
    </linearGradient>
    <linearGradient
       id="linearGradient4562">
      <stop
         style="stop-color:#ffffff;stop-opacity:1;"
         offset="0"
         id="stop4564" />
      <stop
         style="stop-color:#d6d6d2;stop-opacity:1;"
         offset="1"
         id="stop4566" />
    </linearGradient>
    <linearGradient
       inkscape:collect="always"
       id="linearGradient4356">
      <stop
         style="stop-color:#000000;stop-opacity:1;"
         offset="0"
         id="stop4358" />
      <stop
         style="stop-color:#000000;stop-opacity:0;"
         offset="1"
         id="stop4360" />
    </linearGradient>
    <linearGradient
       id="linearGradient3824">
      <stop
         style="stop-color:#ffffff;stop-opacity:1;"
         offset="0"
         id="stop3826" />
      <stop
         style="stop-color:#c9c9c9;stop-opacity:1.0000000;"
         offset="1.0000000"
         id="stop3828" />
    </linearGradient>
    <linearGradient
       inkscape:collect="always"
       id="linearGradient3816">
      <stop
         style="stop-color:#000000;stop-opacity:1;"
         offset="0"
         id="stop3818" />
      <stop
         style="stop-color:#000000;stop-opacity:0;"
         offset="1"
         id="stop3820" />
    </linearGradient>
    <linearGradient
       inkscape:collect="always"
       xlink:href="#linearGradient3824"
       id="linearGradient5462"
       gradientUnits="userSpaceOnUse"
       gradientTransform="matrix(1.33835,0,0,1.33835,-36.66116,-20.70004)"
       x1="30.935921"
       y1="29.553486"
       x2="30.935921"
       y2="35.803486" />
    <linearGradient
       inkscape:collect="always"
       xlink:href="#linearGradient4356"
       id="linearGradient5464"
       gradientUnits="userSpaceOnUse"
       gradientTransform="matrix(-1.308485,0.281154,0.281154,1.308485,35.90908,-26.21225)"
       x1="22.686766"
       y1="36.390400"
       x2="21.408455"
       y2="35.739632" />
    <linearGradient
       inkscape:collect="always"
       xlink:href="#linearGradient5048"
       id="linearGradient5466"
       gradientUnits="userSpaceOnUse"
       gradientTransform="matrix(2.774389,0,0,1.969706,-1892.179,-872.8854)"
       x1="302.85715"
       y1="366.64789"
       x2="302.85715"
       y2="609.50507" />
    <radialGradient
       inkscape:collect="always"
       xlink:href="#linearGradient5060"
       id="radialGradient5468"
       gradientUnits="userSpaceOnUse"
       gradientTransform="matrix(2.774389,0,0,1.969706,-1891.633,-872.8854)"
       cx="605.71429"
       cy="486.64789"
       fx="605.71429"
       fy="486.64789"
       r="117.14286" />
    <radialGradient
       inkscape:collect="always"
       xlink:href="#linearGradient5060"
       id="radialGradient5470"
       gradientUnits="userSpaceOnUse"
       gradientTransform="matrix(-2.774389,0,0,1.969706,112.7623,-872.8854)"
       cx="605.71429"
       cy="486.64789"
       fx="605.71429"
       fy="486.64789"
       r="117.14286" />
    <radialGradient
       inkscape:collect="always"
       xlink:href="#linearGradient4562"
       id="radialGradient5472"
       gradientUnits="userSpaceOnUse"
       gradientTransform="matrix(1.046177,0,-2.580083e-8,1.017815,-9.084376,-6.268494)"
       cx="24.753788"
       cy="26.814409"
       fx="24.753788"
       fy="26.814409"
       r="17.986024" />
    <linearGradient
       inkscape:collect="always"
       xlink:href="#linearGradient4356"
       id="linearGradient5474"
       gradientUnits="userSpaceOnUse"
       gradientTransform="matrix(-0.999008,0.214863,0.214657,0.999968,41.63405,-13.05229)"
       x1="22.686766"
       y1="36.390400"
       x2="21.408455"
       y2="35.739632" />
    <linearGradient
       inkscape:collect="always"
       xlink:href="#linearGradient4356"
       id="linearGradient5476"
       gradientUnits="userSpaceOnUse"
       gradientTransform="matrix(1.004822,0.185726,-0.185548,1.005788,-9.182192,-11.89716)"
       x1="20.661695"
       y1="35.817974"
       x2="22.626925"
       y2="36.217758" />
    <radialGradient
       inkscape:collect="always"
       xlink:href="#linearGradient3816"
       id="radialGradient5478"
       gradientUnits="userSpaceOnUse"
       cx="31.112698"
       cy="19.008621"
       fx="31.112698"
       fy="19.008621"
       r="8.6620579" />
    <radialGradient
       inkscape:collect="always"
       xlink:href="#linearGradient4562"
       id="radialGradient5480"
       gradientUnits="userSpaceOnUse"
       gradientTransform="matrix(0.558489,0,-1.377346e-8,0.563387,14.87134,4.364123)"
       cx="29.922075"
       cy="17.727694"
       fx="29.922075"
       fy="17.727694"
       r="17.986024" />
    <linearGradient
       inkscape:collect="always"
       xlink:href="#linearGradient3824"
       id="linearGradient5482"
       gradientUnits="userSpaceOnUse"
       gradientTransform="matrix(1.33835,0,0,1.33835,-36.66116,-20.70004)"
       x1="30.935921"
       y1="29.553486"
       x2="30.935921"
       y2="35.803486" />
    <linearGradient
       inkscape:collect="always"
       xlink:href="#linearGradient4356"
       id="linearGradient5484"
       gradientUnits="userSpaceOnUse"
       gradientTransform="matrix(-1.308485,0.281154,0.281154,1.308485,35.90908,-26.21225)"
       x1="22.686766"
       y1="36.390400"
       x2="21.408455"
       y2="35.739632" />
    <linearGradient
       inkscape:collect="always"
       xlink:href="#linearGradient5048"
       id="linearGradient5486"
       gradientUnits="userSpaceOnUse"
       gradientTransform="matrix(2.774389,0,0,1.969706,-1892.179,-872.8854)"
       x1="302.85715"
       y1="366.64789"
       x2="302.85715"
       y2="609.50507" />
    <radialGradient
       inkscape:collect="always"
       xlink:href="#linearGradient5060"
       id="radialGradient5488"
       gradientUnits="userSpaceOnUse"
       gradientTransform="matrix(2.774389,0,0,1.969706,-1891.633,-872.8854)"
       cx="605.71429"
       cy="486.64789"
       fx="605.71429"
       fy="486.64789"
       r="117.14286" />
    <radialGradient
       inkscape:collect="always"
       xlink:href="#linearGradient5060"
       id="radialGradient5490"
       gradientUnits="userSpaceOnUse"
       gradientTransform="matrix(-2.774389,0,0,1.969706,112.7623,-872.8854)"
       cx="605.71429"
       cy="486.64789"
       fx="605.71429"
       fy="486.64789"
       r="117.14286" />
    <radialGradient
       inkscape:collect="always"
       xlink:href="#linearGradient4562"
       id="radialGradient5492"
       gradientUnits="userSpaceOnUse"
       gradientTransform="matrix(1.046177,0,-2.580083e-8,1.017815,-9.084376,-6.268494)"
       cx="24.753788"
       cy="26.814409"
       fx="24.753788"
       fy="26.814409"
       r="17.986024" />
    <linearGradient
       inkscape:collect="always"
       xlink:href="#linearGradient4356"
       id="linearGradient5494"
       gradientUnits="userSpaceOnUse"
       gradientTransform="matrix(-0.999008,0.214863,0.214657,0.999968,41.63405,-13.05229)"
       x1="22.686766"
       y1="36.390400"
       x2="21.408455"
       y2="35.739632" />
    <linearGradient
       inkscape:collect="always"
       xlink:href="#linearGradient4356"
       id="linearGradient5496"
       gradientUnits="userSpaceOnUse"
       gradientTransform="matrix(1.004822,0.185726,-0.185548,1.005788,-9.182192,-11.89716)"
       x1="20.661695"
       y1="35.817974"
       x2="22.626925"
       y2="36.217758" />
    <radialGradient
       inkscape:collect="always"
       xlink:href="#linearGradient3816"
       id="radialGradient5498"
       gradientUnits="userSpaceOnUse"
       cx="31.112698"
       cy="19.008621"
       fx="31.112698"
       fy="19.008621"
       r="8.6620579" />
    <radialGradient
       inkscape:collect="always"
       xlink:href="#linearGradient4562"
       id="radialGradient5500"
       gradientUnits="userSpaceOnUse"
       gradientTransform="matrix(0.558489,0,-1.377346e-8,0.563387,14.87134,4.364123)"
       cx="29.922075"
       cy="17.727694"
       fx="29.922075"
       fy="17.727694"
       r="17.986024" />
    <linearGradient
       id="linearGradient5195">
      <stop
         style="stop-color:#fef6b3;stop-opacity:1;"
         offset="0"
         id="stop5199" />
      <stop
         id="stop5205"
         offset="0.58336526"
         style="stop-color:#dbc40b;stop-opacity:1" />
      <stop
         style="stop-color:#fff48f;stop-opacity:1;"
         offset="1"
         id="stop5197" />
    </linearGradient>
    <inkscape:perspective
       id="perspective2919"
       inkscape:persp3d-origin="24 : 16 : 1"
       inkscape:vp_z="48 : 24 : 1"
       inkscape:vp_y="0 : 1000 : 0"
       inkscape:vp_x="0 : 24 : 1"
       sodipodi:type="inkscape:persp3d" />
    <radialGradient
       r="10.982252"
       fy="15.746525"
       fx="11.026446"
       cy="15.746525"
       cx="11.026446"
       gradientTransform="matrix(1,0,0,0.4889336,0,8.0475196)"
       gradientUnits="userSpaceOnUse"
       id="radialGradient8567"
       xlink:href="#linearGradient3383"
       inkscape:collect="always" />
    <linearGradient
       id="linearGradient3383"
       inkscape:collect="always">
      <stop
         id="stop3385"
         offset="0"
         style="stop-color:#000000;stop-opacity:1;" />
      <stop
         id="stop3387"
         offset="1"
         style="stop-color:#000000;stop-opacity:0;" />
    </linearGradient>
    <radialGradient
       gradientUnits="userSpaceOnUse"
       gradientTransform="matrix(-0.9906918,0.9838734,-0.9873672,-0.9911854,14.34067,-13.780844)"
       r="15.17675"
       fy="-3.1232908"
       fx="6.484127"
       cy="-3.1232908"
       cx="6.484127"
       id="radialGradient2766"
       xlink:href="#linearGradient2760"
       inkscape:collect="always" />
    <linearGradient
       id="linearGradient2760">
      <stop
         id="stop2762"
         offset="0"
         style="stop-color:#fff6aa;stop-opacity:1" />
      <stop
         style="stop-color:#fce94f;stop-opacity:1"
         offset="0.56428707"
         id="stop1884" />
      <stop
         id="stop2764"
         offset="1"
         style="stop-color:#fcaf3e;stop-opacity:1" />
    </linearGradient>
    <linearGradient
       gradientUnits="userSpaceOnUse"
       y2="21.047073"
       x2="11.000734"
       y1="-7.5773058"
       x1="11.000734"
       id="linearGradient7955"
       xlink:href="#linearGradient7948"
       inkscape:collect="always" />
    <linearGradient
       id="linearGradient7948"
       inkscape:collect="always">
      <stop
         id="stop7950"
         offset="0"
         style="stop-color:#c4a000;stop-opacity:1;" />
      <stop
         id="stop7953"
         offset="1"
         style="stop-color:#ce5c00;stop-opacity:1" />
    </linearGradient>
    <linearGradient
       gradientUnits="userSpaceOnUse"
       y2="20.587196"
       x2="11"
       y1="-7.0623527"
       x1="11"
       id="linearGradient7956"
       xlink:href="#linearGradient7950"
       inkscape:collect="always" />
    <linearGradient
       id="linearGradient7950"
       inkscape:collect="always">
      <stop
         id="stop7952"
         offset="0"
         style="stop-color:#ffffff;stop-opacity:1;" />
      <stop
         id="stop7954"
         offset="1"
         style="stop-color:#ffffff;stop-opacity:0;" />
    </linearGradient>
    <inkscape:perspective
       id="perspective2980"
       inkscape:persp3d-origin="24 : 16 : 1"
       inkscape:vp_z="48 : 24 : 1"
       inkscape:vp_y="0 : 1000 : 0"
       inkscape:vp_x="0 : 24 : 1"
       sodipodi:type="inkscape:persp3d" />
    <inkscape:perspective
       id="perspective3012"
       inkscape:persp3d-origin="0.5 : 0.33333333 : 1"
       inkscape:vp_z="1 : 0.5 : 1"
       inkscape:vp_y="0 : 1000 : 0"
       inkscape:vp_x="0 : 0.5 : 1"
       sodipodi:type="inkscape:persp3d" />
    <radialGradient
       r="10.982252"
       fy="15.746525"
       fx="11.026446"
       cy="15.746525"
       cx="11.026446"
       gradientTransform="matrix(1,0,0,0.4889336,0,8.0475196)"
       gradientUnits="userSpaceOnUse"
       id="radialGradient8567-1"
       xlink:href="#linearGradient3383-0"
       inkscape:collect="always" />
    <linearGradient
       id="linearGradient3383-0"
       inkscape:collect="always">
      <stop
         id="stop3385-3"
         offset="0"
         style="stop-color:#000000;stop-opacity:1;" />
      <stop
         id="stop3387-4"
         offset="1"
         style="stop-color:#000000;stop-opacity:0;" />
    </linearGradient>
    <radialGradient
       gradientUnits="userSpaceOnUse"
       gradientTransform="matrix(-0.9906918,0.9838734,-0.9873672,-0.9911854,14.34067,-13.780844)"
       r="15.17675"
       fy="-3.1232908"
       fx="6.484127"
       cy="-3.1232908"
       cx="6.484127"
       id="radialGradient2766-0"
       xlink:href="#linearGradient2760-3"
       inkscape:collect="always" />
    <linearGradient
       id="linearGradient2760-3">
      <stop
         id="stop2762-9"
         offset="0"
         style="stop-color:#fff6aa;stop-opacity:1" />
      <stop
         style="stop-color:#fce94f;stop-opacity:1"
         offset="0.56428707"
         id="stop1884-1" />
      <stop
         id="stop2764-9"
         offset="1"
         style="stop-color:#fcaf3e;stop-opacity:1" />
    </linearGradient>
    <linearGradient
       gradientUnits="userSpaceOnUse"
       y2="21.047073"
       x2="11.000734"
       y1="-7.5773058"
       x1="11.000734"
       id="linearGradient7955-6"
       xlink:href="#linearGradient7948-9"
       inkscape:collect="always" />
    <linearGradient
       id="linearGradient7948-9"
       inkscape:collect="always">
      <stop
         id="stop7950-3"
         offset="0"
         style="stop-color:#c4a000;stop-opacity:1;" />
      <stop
         id="stop7953-3"
         offset="1"
         style="stop-color:#ce5c00;stop-opacity:1" />
    </linearGradient>
    <linearGradient
       gradientUnits="userSpaceOnUse"
       y2="20.587196"
       x2="11"
       y1="-7.0623527"
       x1="11"
       id="linearGradient7956-8"
       xlink:href="#linearGradient7950-0"
       inkscape:collect="always" />
    <linearGradient
       id="linearGradient7950-0"
       inkscape:collect="always">
      <stop
         id="stop7952-5"
         offset="0"
         style="stop-color:#ffffff;stop-opacity:1;" />
      <stop
         id="stop7954-6"
         offset="1"
         style="stop-color:#ffffff;stop-opacity:0;" />
    </linearGradient>
    <linearGradient
       y2="20.587196"
       x2="11"
       y1="-7.0623527"
       x1="11"
       gradientUnits="userSpaceOnUse"
       id="linearGradient3037"
       xlink:href="#linearGradient7950-0"
       inkscape:collect="always" />
  </defs>
  <sodipodi:namedview
     inkscape:showpageshadow="false"
     id="base"
     pagecolor="#ffffff"
     bordercolor="#666666"
     borderopacity="0.16862745"
     inkscape:pageopacity="0.0"
     inkscape:pageshadow="2"
     inkscape:zoom="1"
     inkscape:cx="23.902627"
     inkscape:cy="33.060254"
     inkscape:current-layer="layer2"
     showgrid="true"
     inkscape:grid-bbox="true"
     inkscape:document-units="px"
     fill="#9db029"
     stroke="#727e0a"
     inkscape:window-width="866"
     inkscape:window-height="957"
     inkscape:window-x="412"
     inkscape:window-y="15"
     inkscape:window-maximized="0" />
  <metadata
     id="metadata4">
    <rdf:RDF>
      <cc:Work
         rdf:about="">
        <dc:format>image/svg+xml</dc:format>
        <dc:type
           rdf:resource="http://purl.org/dc/dcmitype/StillImage" />
        <dc:title></dc:title>
        <dc:creator>
          <cc:Agent>
            <dc:title>Jakub Steiner</dc:title>
          </cc:Agent>
        </dc:creator>
        <dc:source>http://jimmac.musichall.cz</dc:source>
        <dc:subject>
          <rdf:Bag>
            <rdf:li>user</rdf:li>
            <rdf:li>person</rdf:li>
          </rdf:Bag>
        </dc:subject>
        <cc:license
           rdf:resource="http://creativecommons.org/licenses/GPL/2.0/" />
      </cc:Work>
      <cc:License
         rdf:about="http://creativecommons.org/licenses/GPL/2.0/">
        <cc:permits
           rdf:resource="http://web.resource.org/cc/Reproduction" />
        <cc:permits
           rdf:resource="http://web.resource.org/cc/Distribution" />
        <cc:requires
           rdf:resource="http://web.resource.org/cc/Notice" />
        <cc:permits
           rdf:resource="http://web.resource.org/cc/DerivativeWorks" />
        <cc:requires
           rdf:resource="http://web.resource.org/cc/ShareAlike" />
        <cc:requires
           rdf:resource="http://web.resource.org/cc/SourceCode" />
      </cc:License>
    </rdf:RDF>
  </metadata>
  <g
     id="layer1"
     inkscape:label="cipek"
     inkscape:groupmode="layer"
     style="display:inline" />
  <g
     inkscape:groupmode="layer"
     id="layer2"
     inkscape:label="dalsi cipek"
     style="display:inline">
    <g
       id="g5419"
       style="opacity:0.78857141"
       transform="translate(1,3)">
      <path
         id="path4173"
         d="M 10.183488,24.850231 L 15.861626,24.850231 L 12.54938,21.774572 L 11.839612,22.720929 L 11.129844,22.011162 L 10.183488,24.850231 z "
         style="opacity:1;color:black;fill:url(#linearGradient5482);fill-opacity:1;fill-rule:evenodd;stroke:none;stroke-width:1px;stroke-linecap:round;stroke-linejoin:round;marker:none;marker-start:none;marker-mid:none;marker-end:none;stroke-miterlimit:4;stroke-dasharray:none;stroke-dashoffset:0;stroke-opacity:1;visibility:visible;display:inline;overflow:visible" />
      <path
         style="opacity:0.22784807;color:black;fill:url(#linearGradient5484);fill-opacity:1;fill-rule:evenodd;stroke:none;stroke-width:1px;stroke-linecap:round;stroke-linejoin:round;marker:none;marker-start:none;marker-mid:none;marker-end:none;stroke-miterlimit:4;stroke-dasharray:none;stroke-dashoffset:0;stroke-opacity:1;visibility:visible;display:inline;overflow:visible"
         d="M 16.700942,32.490544 C 18.348787,31.712992 19.115834,29.810737 19.115834,29.810737 C 17.832196,24.39981 13.794355,20.652646 13.794355,20.652646 C 13.794355,20.652646 17.092843,29.141269 16.700942,32.490544 z "
         id="path4370"
         sodipodi:nodetypes="cccc" />
      <g
         transform="matrix(1.443435e-2,0,0,1.697277e-2,30.00245,30.05774)"
         id="g5022"
         style="display:inline">
        <rect
           style="opacity:0.40206185;color:black;fill:url(#linearGradient5486);fill-opacity:1;fill-rule:nonzero;stroke:none;stroke-width:1;stroke-linecap:round;stroke-linejoin:miter;marker:none;marker-start:none;marker-mid:none;marker-end:none;stroke-miterlimit:4;stroke-dasharray:none;stroke-dashoffset:0;stroke-opacity:1;visibility:visible;display:inline;overflow:visible"
           id="rect4173"
           width="1339.6335"
           height="478.35718"
           x="-1559.2523"
           y="-150.69685" />
        <path
           style="opacity:0.40206185;color:black;fill:url(#radialGradient5488);fill-opacity:1;fill-rule:nonzero;stroke:none;stroke-width:1;stroke-linecap:round;stroke-linejoin:miter;marker:none;marker-start:none;marker-mid:none;marker-end:none;stroke-miterlimit:4;stroke-dasharray:none;stroke-dashoffset:0;stroke-opacity:1;visibility:visible;display:inline;overflow:visible"
           d="M -219.61876,-150.68038 C -219.61876,-150.68038 -219.61876,327.65041 -219.61876,327.65041 C -76.744594,328.55086 125.78146,220.48075 125.78138,88.454235 C 125.78138,-43.572302 -33.655436,-150.68036 -219.61876,-150.68038 z "
           id="path5058"
           sodipodi:nodetypes="cccc" />
        <path
           sodipodi:nodetypes="cccc"
           id="path5018"
           d="M -1559.2523,-150.68038 C -1559.2523,-150.68038 -1559.2523,327.65041 -1559.2523,327.65041 C -1702.1265,328.55086 -1904.6525,220.48075 -1904.6525,88.454235 C -1904.6525,-43.572302 -1745.2157,-150.68036 -1559.2523,-150.68038 z "
           style="opacity:0.40206185;color:black;fill:url(#radialGradient5490);fill-opacity:1;fill-rule:nonzero;stroke:none;stroke-width:1;stroke-linecap:round;stroke-linejoin:miter;marker:none;marker-start:none;marker-mid:none;marker-end:none;stroke-miterlimit:4;stroke-dasharray:none;stroke-dashoffset:0;stroke-opacity:1;visibility:visible;display:inline;overflow:visible" />
      </g>
      <path
         sodipodi:nodetypes="cczcczc"
         id="path4308"
         d="M 11.666184,33.499999 L 22.630126,33.499999 C 25.736577,33.499999 28.812096,32.401458 29.939419,29.270409 C 31.00995,26.297106 30.122153,20.634992 23.178323,16.052935 L 10.204323,16.052935 C 3.2604944,20.282525 2.3927351,26.06687 3.9914241,29.446641 C 5.6201015,32.889807 8.3770015,33.499999 11.666184,33.499999 z "
         style="opacity:1;color:black;fill:url(#radialGradient5492);fill-opacity:1;fill-rule:evenodd;stroke:#888a85;stroke-width:0.99999928px;stroke-linecap:round;stroke-linejoin:round;marker:none;marker-start:none;marker-mid:none;marker-end:none;stroke-miterlimit:4;stroke-dasharray:none;stroke-dashoffset:0;stroke-opacity:1;visibility:visible;display:inline;overflow:visible" />
      <path
         inkscape:r_cy="true"
         inkscape:r_cx="true"
         style="opacity:0.29120878;color:black;fill:url(#linearGradient5494);fill-opacity:1;fill-rule:evenodd;stroke:none;stroke-width:1px;stroke-linecap:round;stroke-linejoin:round;marker:none;marker-start:none;marker-mid:none;marker-end:none;stroke-miterlimit:4;stroke-dasharray:none;stroke-dashoffset:0;stroke-opacity:1;visibility:visible;display:inline;overflow:visible"
         d="M 26.968941,31.809458 C 28.227045,31.215239 28.812673,29.761502 28.812673,29.761502 C 27.832636,25.626372 24.749806,22.762722 24.749806,22.762722 C 24.749806,22.762722 27.268151,29.249881 26.968941,31.809458 z "
         id="path4364"
         sodipodi:nodetypes="cccc" />
      <path
         inkscape:r_cy="true"
         inkscape:r_cx="true"
         sodipodi:nodetypes="cccc"
         id="path4354"
         d="M 6.7785466,32.51927 C 5.5037298,31.961879 4.9331641,30.618639 4.9331641,30.618639 C 5.7927935,26.456761 8.7342195,23.411829 8.7342195,23.411829 C 8.7342195,23.411829 6.4051874,29.969472 6.7785466,32.51927 z "
         style="opacity:0.54945056;color:black;fill:url(#linearGradient5496);fill-opacity:1;fill-rule:evenodd;stroke:none;stroke-width:1px;stroke-linecap:round;stroke-linejoin:round;marker:none;marker-start:none;marker-mid:none;marker-end:none;stroke-miterlimit:4;stroke-dasharray:none;stroke-dashoffset:0;stroke-opacity:1;visibility:visible;display:inline;overflow:visible" />
      <path
         style="opacity:0.64285715;color:black;fill:none;fill-opacity:1;fill-rule:evenodd;stroke:white;stroke-width:0.99999863px;stroke-linecap:round;stroke-linejoin:round;marker:none;marker-start:none;marker-mid:none;marker-end:none;stroke-miterlimit:4;stroke-dasharray:none;stroke-dashoffset:0;stroke-opacity:1;visibility:visible;display:inline;overflow:visible"
         d="M 11.614344,32.499985 L 22.544063,32.477728 C 25.293538,32.477728 28.01563,31.502849 29.013408,28.724263 C 29.96092,26.085665 28.914748,21.060936 22.768871,16.994681 L 10.764996,16.749865 C 4.6191173,20.503331 3.429572,25.636533 4.8675621,28.880657 C 6.3055541,32.124781 8.4039325,32.477728 11.614344,32.499985 z "
         id="path4314"
         sodipodi:nodetypes="cczcczc" />
      <path
         transform="matrix(1.021809,0,0,1.022791,-15.11053,-5.36187)"
         sodipodi:type="arc"
         style="opacity:1;color:black;fill:url(#radialGradient5498);fill-opacity:1;fill-rule:evenodd;stroke:none;stroke-width:1px;stroke-linecap:round;stroke-linejoin:round;marker:none;marker-start:none;marker-mid:none;marker-end:none;stroke-miterlimit:4;stroke-dasharray:none;stroke-dashoffset:0;stroke-opacity:1;visibility:visible;display:inline;overflow:visible"
         id="path4318"
         sodipodi:cx="31.112698"
         sodipodi:cy="19.008621"
         sodipodi:rx="8.6620579"
         sodipodi:ry="8.6620579"
         d="m 39.774755,19.008621 c 0,4.783923 -3.878135,8.662058 -8.662057,8.662058 -4.783923,0 -8.662058,-3.878135 -8.662058,-8.662058 0,-4.783922 3.878135,-8.662058 8.662058,-8.662058 4.783922,0 8.662057,3.878136 8.662057,8.662058 z" />
      <path
         transform="matrix(0.981291,0,0,0.981291,-13.71259,-7.652994)"
         d="m 39.774755,19.008621 c 0,4.783923 -3.878135,8.662058 -8.662057,8.662058 -4.783923,0 -8.662058,-3.878135 -8.662058,-8.662058 0,-4.783922 3.878135,-8.662058 8.662058,-8.662058 4.783922,0 8.662057,3.878136 8.662057,8.662058 z"
         sodipodi:ry="8.6620579"
         sodipodi:rx="8.6620579"
         sodipodi:cy="19.008621"
         sodipodi:cx="31.112698"
         id="path4320"
         style="opacity:1;color:black;fill:url(#radialGradient5500);fill-opacity:1;fill-rule:evenodd;stroke:#888a85;stroke-width:1.0190649px;stroke-linecap:round;stroke-linejoin:round;marker:none;marker-start:none;marker-mid:none;marker-end:none;stroke-miterlimit:4;stroke-dasharray:none;stroke-dashoffset:0;stroke-opacity:1;visibility:visible;display:inline;overflow:visible"
         sodipodi:type="arc" />
      <path
         transform="matrix(0.865845,0,0,0.865845,-10.12076,-5.458528)"
         sodipodi:type="arc"
         style="opacity:0.52571429;color:black;fill:none;fill-opacity:1;fill-rule:evenodd;stroke:white;stroke-width:1.15494144px;stroke-linecap:round;stroke-linejoin:round;marker:none;marker-start:none;marker-mid:none;marker-end:none;stroke-miterlimit:4;stroke-dasharray:none;stroke-dashoffset:0;stroke-opacity:1;visibility:visible;display:inline;overflow:visible"
         id="path4322"
         sodipodi:cx="31.112698"
         sodipodi:cy="19.008621"
         sodipodi:rx="8.6620579"
         sodipodi:ry="8.6620579"
         d="m 39.774755,19.008621 c 0,4.783923 -3.878135,8.662058 -8.662057,8.662058 -4.783923,0 -8.662058,-3.878135 -8.662058,-8.662058 0,-4.783922 3.878135,-8.662058 8.662058,-8.662058 4.783922,0 8.662057,3.878136 8.662057,8.662058 z" />
    </g>
    <g
       id="g5434"
       transform="translate(11.78858,8.906086)">
      <path
         style="opacity:1;color:black;fill:url(#linearGradient5462);fill-opacity:1;fill-rule:evenodd;stroke:none;stroke-width:1px;stroke-linecap:round;stroke-linejoin:round;marker:none;marker-start:none;marker-mid:none;marker-end:none;stroke-miterlimit:4;stroke-dasharray:none;stroke-dashoffset:0;stroke-opacity:1;visibility:visible;display:inline;overflow:visible"
         d="M 10.183488,24.850231 L 15.861626,24.850231 L 12.54938,21.774572 L 11.839612,22.720929 L 11.129844,22.011162 L 10.183488,24.850231 z "
         id="path5436" />
      <path
         sodipodi:nodetypes="cccc"
         id="path5438"
         d="M 16.700942,32.490544 C 18.348787,31.712992 19.115834,29.810737 19.115834,29.810737 C 17.832196,24.39981 13.794355,20.652646 13.794355,20.652646 C 13.794355,20.652646 17.092843,29.141269 16.700942,32.490544 z "
         style="opacity:0.22784807;color:black;fill:url(#linearGradient5464);fill-opacity:1;fill-rule:evenodd;stroke:none;stroke-width:1px;stroke-linecap:round;stroke-linejoin:round;marker:none;marker-start:none;marker-mid:none;marker-end:none;stroke-miterlimit:4;stroke-dasharray:none;stroke-dashoffset:0;stroke-opacity:1;visibility:visible;display:inline;overflow:visible" />
      <g
         style="display:inline"
         id="g5440"
         transform="matrix(1.443435e-2,0,0,1.697277e-2,30.00245,30.05774)">
        <rect
           y="-150.69685"
           x="-1559.2523"
           height="478.35718"
           width="1339.6335"
           id="rect5442"
           style="opacity:0.40206185;color:black;fill:url(#linearGradient5466);fill-opacity:1;fill-rule:nonzero;stroke:none;stroke-width:1;stroke-linecap:round;stroke-linejoin:miter;marker:none;marker-start:none;marker-mid:none;marker-end:none;stroke-miterlimit:4;stroke-dasharray:none;stroke-dashoffset:0;stroke-opacity:1;visibility:visible;display:inline;overflow:visible" />
        <path
           sodipodi:nodetypes="cccc"
           id="path5444"
           d="M -219.61876,-150.68038 C -219.61876,-150.68038 -219.61876,327.65041 -219.61876,327.65041 C -76.744594,328.55086 125.78146,220.48075 125.78138,88.454235 C 125.78138,-43.572302 -33.655436,-150.68036 -219.61876,-150.68038 z "
           style="opacity:0.40206185;color:black;fill:url(#radialGradient5468);fill-opacity:1;fill-rule:nonzero;stroke:none;stroke-width:1;stroke-linecap:round;stroke-linejoin:miter;marker:none;marker-start:none;marker-mid:none;marker-end:none;stroke-miterlimit:4;stroke-dasharray:none;stroke-dashoffset:0;stroke-opacity:1;visibility:visible;display:inline;overflow:visible" />
        <path
           style="opacity:0.40206185;color:black;fill:url(#radialGradient5470);fill-opacity:1;fill-rule:nonzero;stroke:none;stroke-width:1;stroke-linecap:round;stroke-linejoin:miter;marker:none;marker-start:none;marker-mid:none;marker-end:none;stroke-miterlimit:4;stroke-dasharray:none;stroke-dashoffset:0;stroke-opacity:1;visibility:visible;display:inline;overflow:visible"
           d="M -1559.2523,-150.68038 C -1559.2523,-150.68038 -1559.2523,327.65041 -1559.2523,327.65041 C -1702.1265,328.55086 -1904.6525,220.48075 -1904.6525,88.454235 C -1904.6525,-43.572302 -1745.2157,-150.68036 -1559.2523,-150.68038 z "
           id="path5446"
           sodipodi:nodetypes="cccc" />
      </g>
      <path
         style="opacity:1;color:black;fill:url(#radialGradient5472);fill-opacity:1;fill-rule:evenodd;stroke:#888a85;stroke-width:0.99999928px;stroke-linecap:round;stroke-linejoin:round;marker:none;marker-start:none;marker-mid:none;marker-end:none;stroke-miterlimit:4;stroke-dasharray:none;stroke-dashoffset:0;stroke-opacity:1;visibility:visible;display:inline;overflow:visible"
         d="M 11.666184,33.499999 L 22.630126,33.499999 C 25.736577,33.499999 28.812096,32.401458 29.939419,29.270409 C 31.00995,26.297106 30.122153,20.634992 23.178323,16.052935 L 10.204323,16.052935 C 3.2604944,20.282525 2.3927351,26.06687 3.9914241,29.446641 C 5.6201015,32.889807 8.3770015,33.499999 11.666184,33.499999 z "
         id="path5448"
         sodipodi:nodetypes="cczcczc" />
      <path
         sodipodi:nodetypes="cccc"
         id="path5450"
         d="M 26.968941,31.809458 C 28.227045,31.215239 28.812673,29.761502 28.812673,29.761502 C 27.832636,25.626372 24.749806,22.762722 24.749806,22.762722 C 24.749806,22.762722 27.268151,29.249881 26.968941,31.809458 z "
         style="opacity:0.29120878;color:black;fill:url(#linearGradient5474);fill-opacity:1;fill-rule:evenodd;stroke:none;stroke-width:1px;stroke-linecap:round;stroke-linejoin:round;marker:none;marker-start:none;marker-mid:none;marker-end:none;stroke-miterlimit:4;stroke-dasharray:none;stroke-dashoffset:0;stroke-opacity:1;visibility:visible;display:inline;overflow:visible"
         inkscape:r_cx="true"
         inkscape:r_cy="true" />
      <path
         style="opacity:0.54945056;color:black;fill:url(#linearGradient5476);fill-opacity:1;fill-rule:evenodd;stroke:none;stroke-width:1px;stroke-linecap:round;stroke-linejoin:round;marker:none;marker-start:none;marker-mid:none;marker-end:none;stroke-miterlimit:4;stroke-dasharray:none;stroke-dashoffset:0;stroke-opacity:1;visibility:visible;display:inline;overflow:visible"
         d="M 6.7785466,32.51927 C 5.5037298,31.961879 4.9331641,30.618639 4.9331641,30.618639 C 5.7927935,26.456761 8.7342195,23.411829 8.7342195,23.411829 C 8.7342195,23.411829 6.4051874,29.969472 6.7785466,32.51927 z "
         id="path5452"
         sodipodi:nodetypes="cccc"
         inkscape:r_cx="true"
         inkscape:r_cy="true" />
      <path
         sodipodi:nodetypes="cczcczc"
         id="path5454"
         d="M 11.614344,32.499985 L 22.544063,32.477728 C 25.293538,32.477728 28.01563,31.502849 29.013408,28.724263 C 29.96092,26.085665 28.914748,21.060936 22.768871,16.994681 L 10.764996,16.749865 C 4.6191173,20.503331 3.429572,25.636533 4.8675621,28.880657 C 6.3055541,32.124781 8.4039325,32.477728 11.614344,32.499985 z "
         style="opacity:0.64285715;color:black;fill:none;fill-opacity:1;fill-rule:evenodd;stroke:white;stroke-width:0.99999863px;stroke-linecap:round;stroke-linejoin:round;marker:none;marker-start:none;marker-mid:none;marker-end:none;stroke-miterlimit:4;stroke-dasharray:none;stroke-dashoffset:0;stroke-opacity:1;visibility:visible;display:inline;overflow:visible" />
      <path
         d="m 39.774755,19.008621 c 0,4.783923 -3.878135,8.662058 -8.662057,8.662058 -4.783923,0 -8.662058,-3.878135 -8.662058,-8.662058 0,-4.783922 3.878135,-8.662058 8.662058,-8.662058 4.783922,0 8.662057,3.878136 8.662057,8.662058 z"
         sodipodi:ry="8.6620579"
         sodipodi:rx="8.6620579"
         sodipodi:cy="19.008621"
         sodipodi:cx="31.112698"
         id="path5456"
         style="opacity:1;color:black;fill:url(#radialGradient5478);fill-opacity:1;fill-rule:evenodd;stroke:none;stroke-width:1px;stroke-linecap:round;stroke-linejoin:round;marker:none;marker-start:none;marker-mid:none;marker-end:none;stroke-miterlimit:4;stroke-dasharray:none;stroke-dashoffset:0;stroke-opacity:1;visibility:visible;display:inline;overflow:visible"
         sodipodi:type="arc"
         transform="matrix(1.021809,0,0,1.022791,-15.11053,-5.36187)" />
      <path
         sodipodi:type="arc"
         style="opacity:1;color:black;fill:url(#radialGradient5480);fill-opacity:1;fill-rule:evenodd;stroke:#888a85;stroke-width:1.0190649px;stroke-linecap:round;stroke-linejoin:round;marker:none;marker-start:none;marker-mid:none;marker-end:none;stroke-miterlimit:4;stroke-dasharray:none;stroke-dashoffset:0;stroke-opacity:1;visibility:visible;display:inline;overflow:visible"
         id="path5458"
         sodipodi:cx="31.112698"
         sodipodi:cy="19.008621"
         sodipodi:rx="8.6620579"
         sodipodi:ry="8.6620579"
         d="m 39.774755,19.008621 c 0,4.783923 -3.878135,8.662058 -8.662057,8.662058 -4.783923,0 -8.662058,-3.878135 -8.662058,-8.662058 0,-4.783922 3.878135,-8.662058 8.662058,-8.662058 4.783922,0 8.662057,3.878136 8.662057,8.662058 z"
         transform="matrix(0.981291,0,0,0.981291,-13.71259,-7.652994)" />
      <path
         d="m 39.774755,19.008621 c 0,4.783923 -3.878135,8.662058 -8.662057,8.662058 -4.783923,0 -8.662058,-3.878135 -8.662058,-8.662058 0,-4.783922 3.878135,-8.662058 8.662058,-8.662058 4.783922,0 8.662057,3.878136 8.662057,8.662058 z"
         sodipodi:ry="8.6620579"
         sodipodi:rx="8.6620579"
         sodipodi:cy="19.008621"
         sodipodi:cx="31.112698"
         id="path5460"
         style="opacity:0.52571429;color:black;fill:none;fill-opacity:1;fill-rule:evenodd;stroke:white;stroke-width:1.15494144px;stroke-linecap:round;stroke-linejoin:round;marker:none;marker-start:none;marker-mid:none;marker-end:none;stroke-miterlimit:4;stroke-dasharray:none;stroke-dashoffset:0;stroke-opacity:1;visibility:visible;display:inline;overflow:visible"
         sodipodi:type="arc"
         transform="matrix(0.865845,0,0,0.865845,-10.12076,-5.458528)" />
    </g>
    <g
       inkscape:label="Layer 1"
       id="layer1-8"
       transform="matrix(0.15217753,0,0,0.15217753,20.34757,29.445488)">
      <path
         transform="matrix(1.9121761,0,0,1.8623388,2.9154929,8.674636)"
         d="m 22.008698,15.746525 c 0,2.965544 -4.916921,5.369592 -10.982252,5.369592 -6.06533,0 -10.98225178,-2.404048 -10.98225178,-5.369592 0,-2.965544 4.91692178,-5.369592 10.98225178,-5.369592 6.065331,0 10.982252,2.404048 10.982252,5.369592 z"
         sodipodi:ry="5.3695922"
         sodipodi:rx="10.982252"
         sodipodi:cy="15.746525"
         sodipodi:cx="11.026446"
         id="path3428"
         style="opacity:0.2;fill:url(#radialGradient8567);fill-opacity:1;stroke:none"
         sodipodi:type="arc" />
      <path
         transform="matrix(1.5348722,0,0,1.5372119,7.1163768,12.647913)"
         d="m 11,-7.2520323 c 1.772557,-0.00835 3.778116,7.08970892 5.21216,8.13160354 1.445675,1.05034586 8.85207,0.79679016 9.412267,2.49366486 0.55569,1.6832214 -5.575212,5.7840421 -6.122969,7.4698619 -0.5522,1.699494 1.977648,8.66504 0.536934,9.722183 -1.429121,1.048636 -7.223786,-3.514975 -8.996362,-3.514975 -1.7869536,-10e-7 -7.6298161,4.558499 -9.0804231,3.514974 C 0.52267162,19.530152 3.0722734,12.608865 2.5245181,10.923044 1.9723197,9.2235499 -4.1686154,5.0753115 -3.6244266,3.3732353 -3.0846165,1.6848543 4.2857892,1.9708743 5.7198337,0.92898096 7.1655103,-0.12136361 9.2130662,-7.2436161 11,-7.2520323 z"
         inkscape:randomized="0"
         inkscape:rounded="0.18352206"
         inkscape:flatsided="false"
         sodipodi:arg2="-0.94718689"
         sodipodi:arg1="-1.5707963"
         sodipodi:r2="8.9254045"
         sodipodi:r1="15.377032"
         sodipodi:cy="8.125"
         sodipodi:cx="11"
         sodipodi:sides="5"
         id="path1869"
         style="fill:url(#radialGradient2766);fill-opacity:1;stroke:url(#linearGradient7955);stroke-width:0.65102839;stroke-linecap:butt;stroke-linejoin:miter;stroke-miterlimit:4;stroke-opacity:1;stroke-dasharray:none;stroke-dashoffset:0"
         sodipodi:type="star" />
      <path
         transform="matrix(1.5889053,0,0,1.5941579,6.5220128,12.214526)"
         d="m 11,-6.09375 c -0.115043,0.105432 -0.281813,0.2839133 -0.46875,0.5625 -0.396359,0.5906804 -0.8683459,1.4938963 -1.3125,2.4375 -0.4441541,0.9436037 -0.8738958,1.9548441 -1.3125,2.8125 C 7.4676458,0.57640587 7.1401874,1.2792634 6.40625,1.8125 5.6722678,2.3457692 4.8892811,2.4412409 3.9375,2.59375 2.9857189,2.7462591 1.9105283,2.837398 0.875,2.96875 c -1.0355283,0.131352 -2.0337412,0.3051682 -2.71875,0.5 -0.3295903,0.093743 -0.553486,0.2038425 -0.6875,0.28125 0.067171,0.1432548 0.2060035,0.3688778 0.40625,0.625 0.4378381,0.5600099 1.14832553,1.2539777 1.90625,1.96875 0.75792447,0.7147723 1.5716979,1.4422676 2.25,2.125 0.6783021,0.6827324 1.2515002,1.2015187 1.53125,2.0625 0.2794788,0.860147 0.1152444,1.642688 -0.03125,2.59375 -0.1464944,0.951062 -0.3706473,2.007349 -0.5625,3.03125 -0.1918527,1.023901 -0.3507207,2.008133 -0.375,2.71875 -0.011657,0.341186 0.029976,0.598342 0.0625,0.75 0.1568619,-0.01947 0.4132439,-0.07635 0.71875,-0.1875 0.6674589,-0.242825 1.5552768,-0.688309 2.46875,-1.1875 0.9134732,-0.499191 1.8602082,-1.03521 2.71875,-1.46875 0.8585418,-0.43354 1.532819,-0.8125 2.4375,-0.8125 0.904681,0 1.578958,0.378961 2.4375,0.8125 0.858542,0.433539 1.805277,0.969559 2.71875,1.46875 0.913473,0.499191 1.801291,0.944675 2.46875,1.1875 0.305506,0.111145 0.561888,0.168035 0.71875,0.1875 0.03252,-0.151658 0.07416,-0.408814 0.0625,-0.75 -0.02428,-0.710617 -0.183147,-1.694849 -0.375,-2.71875 -0.191853,-1.023901 -0.416006,-2.080188 -0.5625,-3.03125 -0.146494,-0.951062 -0.310729,-1.733603 -0.03125,-2.59375 0.27975,-0.860981 0.852948,-1.3797676 1.53125,-2.0625 0.678302,-0.6827324 1.492076,-1.4102277 2.25,-2.125 C 22.976674,5.6289777 23.687162,4.9350099 24.125,4.375 24.325247,4.1188778 24.464079,3.8932549 24.53125,3.75 24.397236,3.6725925 24.17334,3.5624928 23.84375,3.46875 23.158741,3.2739182 22.160528,3.100102 21.125,2.96875 20.089472,2.837398 19.014281,2.7462591 18.0625,2.59375 17.110719,2.4412409 16.327732,2.3457692 15.59375,1.8125 c -0.733937,-0.5332366 -1.061396,-1.23609413 -1.5,-2.09375 -0.438604,-0.8576559 -0.868346,-1.8688963 -1.3125,-2.8125 -0.444154,-0.9436037 -0.916141,-1.8468196 -1.3125,-2.4375 C 11.281813,-5.8098367 11.115043,-5.988318 11,-6.09375 z"
         id="path2758"
         style="fill:none;stroke:url(#linearGradient7956);stroke-width:0.62848389;stroke-linecap:butt;stroke-linejoin:round;stroke-miterlimit:4;stroke-opacity:1;stroke-dasharray:none;stroke-dashoffset:0"
         inkscape:original="M 11 -7.25 C 9.2185557 -7.25 7.222469 -0.10960666 5.78125 0.9375 C 4.3400313 1.9846066 -3.0745035 1.6807459 -3.625 3.375 C -4.1754966 5.0692543 1.9807534 9.1807461 2.53125 10.875 C 3.0817465 12.569254 0.52753133 19.515393 1.96875 20.5625 C 3.4099688 21.609607 9.2185557 17.03125 11 17.03125 C 12.781444 17.03125 18.590031 21.609606 20.03125 20.5625 C 21.472469 19.515393 18.918253 12.569255 19.46875 10.875 C 20.019247 9.1807459 26.175496 5.0692541 25.625 3.375 C 25.074503 1.6807458 17.659969 1.9846068 16.21875 0.9375 C 14.777531 -0.1096067 12.781445 -7.25 11 -7.25 z "
         inkscape:radius="-1.0723317"
         sodipodi:type="inkscape:offset" />
    </g>
    <g
       style="display:inline"
       inkscape:label="Layer 1"
       id="layer1-8-6"
       transform="matrix(0.15217753,0,0,0.15217753,9.097572,22.021651)">
      <path
         transform="matrix(1.9121761,0,0,1.8623388,2.9154929,8.674636)"
         d="m 22.008698,15.746525 c 0,2.965544 -4.916921,5.369592 -10.982252,5.369592 -6.06533,0 -10.98225178,-2.404048 -10.98225178,-5.369592 0,-2.965544 4.91692178,-5.369592 10.98225178,-5.369592 6.065331,0 10.982252,2.404048 10.982252,5.369592 z"
         sodipodi:ry="5.3695922"
         sodipodi:rx="10.982252"
         sodipodi:cy="15.746525"
         sodipodi:cx="11.026446"
         id="path3428-4"
         style="opacity:0.2;fill:url(#radialGradient8567-1);fill-opacity:1;stroke:none"
         sodipodi:type="arc" />
      <path
         transform="matrix(1.5348722,0,0,1.5372119,7.1163768,12.647913)"
         d="m 11,-7.2520323 c 1.772557,-0.00835 3.778116,7.08970892 5.21216,8.13160354 1.445675,1.05034586 8.85207,0.79679016 9.412267,2.49366486 0.55569,1.6832214 -5.575212,5.7840421 -6.122969,7.4698619 -0.5522,1.699494 1.977648,8.66504 0.536934,9.722183 -1.429121,1.048636 -7.223786,-3.514975 -8.996362,-3.514975 -1.7869536,-10e-7 -7.6298161,4.558499 -9.0804231,3.514974 C 0.52267162,19.530152 3.0722734,12.608865 2.5245181,10.923044 1.9723197,9.2235499 -4.1686154,5.0753115 -3.6244266,3.3732353 -3.0846165,1.6848543 4.2857892,1.9708743 5.7198337,0.92898096 7.1655103,-0.12136361 9.2130662,-7.2436161 11,-7.2520323 z"
         inkscape:randomized="0"
         inkscape:rounded="0.18352206"
         inkscape:flatsided="false"
         sodipodi:arg2="-0.94718689"
         sodipodi:arg1="-1.5707963"
         sodipodi:r2="8.9254045"
         sodipodi:r1="15.377032"
         sodipodi:cy="8.125"
         sodipodi:cx="11"
         sodipodi:sides="5"
         id="path1869-0"
         style="fill:url(#radialGradient2766-0);fill-opacity:1;stroke:url(#linearGradient7955-6);stroke-width:0.65102839;stroke-linecap:butt;stroke-linejoin:miter;stroke-miterlimit:4;stroke-opacity:1;stroke-dasharray:none;stroke-dashoffset:0"
         sodipodi:type="star" />
      <path
         transform="matrix(1.5889053,0,0,1.5941579,6.5220128,12.214526)"
         d="m 11,-6.09375 c -0.115043,0.105432 -0.281813,0.2839133 -0.46875,0.5625 -0.396359,0.5906804 -0.8683459,1.4938963 -1.3125,2.4375 -0.4441541,0.9436037 -0.8738958,1.9548441 -1.3125,2.8125 C 7.4676458,0.57640587 7.1401874,1.2792634 6.40625,1.8125 5.6722678,2.3457692 4.8892811,2.4412409 3.9375,2.59375 2.9857189,2.7462591 1.9105283,2.837398 0.875,2.96875 c -1.0355283,0.131352 -2.0337412,0.3051682 -2.71875,0.5 -0.3295903,0.093743 -0.553486,0.2038425 -0.6875,0.28125 0.067171,0.1432548 0.2060035,0.3688778 0.40625,0.625 0.4378381,0.5600099 1.14832553,1.2539777 1.90625,1.96875 0.75792447,0.7147723 1.5716979,1.4422676 2.25,2.125 0.6783021,0.6827324 1.2515002,1.2015187 1.53125,2.0625 0.2794788,0.860147 0.1152444,1.642688 -0.03125,2.59375 -0.1464944,0.951062 -0.3706473,2.007349 -0.5625,3.03125 -0.1918527,1.023901 -0.3507207,2.008133 -0.375,2.71875 -0.011657,0.341186 0.029976,0.598342 0.0625,0.75 0.1568619,-0.01947 0.4132439,-0.07635 0.71875,-0.1875 0.6674589,-0.242825 1.5552768,-0.688309 2.46875,-1.1875 0.9134732,-0.499191 1.8602082,-1.03521 2.71875,-1.46875 0.8585418,-0.43354 1.532819,-0.8125 2.4375,-0.8125 0.904681,0 1.578958,0.378961 2.4375,0.8125 0.858542,0.433539 1.805277,0.969559 2.71875,1.46875 0.913473,0.499191 1.801291,0.944675 2.46875,1.1875 0.305506,0.111145 0.561888,0.168035 0.71875,0.1875 0.03252,-0.151658 0.07416,-0.408814 0.0625,-0.75 -0.02428,-0.710617 -0.183147,-1.694849 -0.375,-2.71875 -0.191853,-1.023901 -0.416006,-2.080188 -0.5625,-3.03125 -0.146494,-0.951062 -0.310729,-1.733603 -0.03125,-2.59375 0.27975,-0.860981 0.852948,-1.3797676 1.53125,-2.0625 0.678302,-0.6827324 1.492076,-1.4102277 2.25,-2.125 C 22.976674,5.6289777 23.687162,4.9350099 24.125,4.375 24.325247,4.1188778 24.464079,3.8932549 24.53125,3.75 24.397236,3.6725925 24.17334,3.5624928 23.84375,3.46875 23.158741,3.2739182 22.160528,3.100102 21.125,2.96875 20.089472,2.837398 19.014281,2.7462591 18.0625,2.59375 17.110719,2.4412409 16.327732,2.3457692 15.59375,1.8125 c -0.733937,-0.5332366 -1.061396,-1.23609413 -1.5,-2.09375 -0.438604,-0.8576559 -0.868346,-1.8688963 -1.3125,-2.8125 -0.444154,-0.9436037 -0.916141,-1.8468196 -1.3125,-2.4375 C 11.281813,-5.8098367 11.115043,-5.988318 11,-6.09375 z"
         id="path2758-0"
         style="fill:none;stroke:url(#linearGradient3037);stroke-width:0.62848389;stroke-linecap:butt;stroke-linejoin:round;stroke-miterlimit:4;stroke-opacity:1;stroke-dasharray:none;stroke-dashoffset:0"
         inkscape:original="M 11 -7.25 C 9.2185557 -7.25 7.222469 -0.10960666 5.78125 0.9375 C 4.3400313 1.9846066 -3.0745035 1.6807459 -3.625 3.375 C -4.1754966 5.0692543 1.9807534 9.1807461 2.53125 10.875 C 3.0817465 12.569254 0.52753133 19.515393 1.96875 20.5625 C 3.4099688 21.609607 9.2185557 17.03125 11 17.03125 C 12.781444 17.03125 18.590031 21.609606 20.03125 20.5625 C 21.472469 19.515393 18.918253 12.569255 19.46875 10.875 C 20.019247 9.1807459 26.175496 5.0692541 25.625 3.375 C 25.074503 1.6807458 17.659969 1.9846068 16.21875 0.9375 C 14.777531 -0.1096067 12.781445 -7.25 11 -7.25 z "
         inkscape:radius="-1.0723317"
         sodipodi:type="inkscape:offset" />
    </g>
  </g>
</svg>
