<?xml version="1.0" encoding="UTF-8" standalone="no"?>
<!-- Created with Inkscape (http://www.inkscape.org/) -->

<svg
   xmlns:dc="http://purl.org/dc/elements/1.1/"
   xmlns:cc="http://creativecommons.org/ns#"
   xmlns:rdf="http://www.w3.org/1999/02/22-rdf-syntax-ns#"
   xmlns:svg="http://www.w3.org/2000/svg"
   xmlns="http://www.w3.org/2000/svg"
   xmlns:xlink="http://www.w3.org/1999/xlink"
   xmlns:sodipodi="http://sodipodi.sourceforge.net/DTD/sodipodi-0.dtd"
   xmlns:inkscape="http://www.inkscape.org/namespaces/inkscape"
   width="48px"
   height="48px"
   id="svg3397"
   sodipodi:version="0.32"
   inkscape:version="0.47pre4 r22446"
   sodipodi:docname="emblem-money.svg"
   inkscape:output_extension="org.inkscape.output.svg.inkscape"
   version="1.1">
  <defs
     id="defs3399">
    <inkscape:perspective
       sodipodi:type="inkscape:persp3d"
       inkscape:vp_x="0 : 24 : 1"
       inkscape:vp_y="0 : 1000 : 0"
       inkscape:vp_z="48 : 24 : 1"
       inkscape:persp3d-origin="24 : 16 : 1"
       id="perspective90" />
    <linearGradient
       id="linearGradient2300"
       inkscape:collect="always">
      <stop
         id="stop2302"
         offset="0"
         style="stop-color:#555753;stop-opacity:1;" />
      <stop
         id="stop2304"
         offset="1"
         style="stop-color:#555753;stop-opacity:0;" />
    </linearGradient>
    <radialGradient
       inkscape:collect="always"
       xlink:href="#linearGradient2649"
       id="radialGradient2655"
       cx="24.013132"
       cy="31.643599"
       fx="24.013132"
       fy="31.643599"
       r="14.986866"
       gradientTransform="matrix(3.323547,0,0,2.772052,-55.795639,-48.866195)"
       gradientUnits="userSpaceOnUse" />
    <linearGradient
       inkscape:collect="always"
       id="linearGradient2649">
      <stop
         style="stop-color:#d3d7cf;stop-opacity:1;"
         offset="0"
         id="stop2651" />
      <stop
         style="stop-color:#d3d7cf;stop-opacity:0;"
         offset="1"
         id="stop2653" />
    </linearGradient>
    <radialGradient
       inkscape:collect="always"
       xlink:href="#linearGradient2623"
       id="radialGradient2629"
       cx="24.5"
       cy="18.592903"
       fx="24.5"
       fy="18.592903"
       r="14.5"
       gradientTransform="matrix(2.94027,0,0,2.433326,-47.536589,-23.366555)"
       gradientUnits="userSpaceOnUse" />
    <linearGradient
       inkscape:collect="always"
       id="linearGradient2623">
      <stop
         style="stop-color:#babdb6;stop-opacity:1;"
         offset="0"
         id="stop2625" />
      <stop
         style="stop-color:#babdb6;stop-opacity:0;"
         offset="1"
         id="stop2627" />
    </linearGradient>
    <linearGradient
       inkscape:collect="always"
       xlink:href="#linearGradient2632"
       id="linearGradient2639"
       x1="24.612919"
       y1="20.159996"
       x2="29.182333"
       y2="12.24554"
       gradientUnits="userSpaceOnUse"
       gradientTransform="translate(1.9731731e-6,0.99998521)" />
    <linearGradient
       inkscape:collect="always"
       id="linearGradient2632">
      <stop
         style="stop-color:#204a87;stop-opacity:1;"
         offset="0"
         id="stop2635" />
      <stop
         style="stop-color:#204a87;stop-opacity:0;"
         offset="1"
         id="stop2637" />
    </linearGradient>
    <linearGradient
       inkscape:collect="always"
       xlink:href="#linearGradient2707"
       id="linearGradient2713"
       x1="18"
       y1="39"
       x2="18"
       y2="45.780262"
       gradientUnits="userSpaceOnUse"
       gradientTransform="matrix(1,0,0,0.833333,9.7317314e-7,7.4999852)" />
    <linearGradient
       inkscape:collect="always"
       id="linearGradient2707">
      <stop
         style="stop-color:#eeeeec;stop-opacity:1;"
         offset="0"
         id="stop2709" />
      <stop
         style="stop-color:#eeeeec;stop-opacity:0;"
         offset="1"
         id="stop2711" />
    </linearGradient>
    <radialGradient
       r="21.030567"
       fy="40.604275"
       fx="17.984474"
       cy="40.604275"
       cx="17.984474"
       gradientTransform="matrix(1.113818,0,0,0.539348,-2.124098,18.94132)"
       gradientUnits="userSpaceOnUse"
       id="radialGradient3502"
       xlink:href="#linearGradient2300"
       inkscape:collect="always" />
  </defs>
  <sodipodi:namedview
     id="base"
     pagecolor="#ffffff"
     bordercolor="#666666"
     borderopacity="1.0"
     inkscape:pageopacity="0.0"
     inkscape:pageshadow="2"
     inkscape:zoom="3.5"
     inkscape:cx="10.509668"
     inkscape:cy="23.899072"
     inkscape:current-layer="layer1"
     showgrid="true"
     inkscape:grid-bbox="true"
     inkscape:document-units="px"
     inkscape:window-width="611"
     inkscape:window-height="481"
     inkscape:window-x="422"
     inkscape:window-y="350"
     inkscape:window-maximized="0" />
  <metadata
     id="metadata3402">
    <rdf:RDF>
      <cc:Work
         rdf:about="">
        <dc:format>image/svg+xml</dc:format>
        <dc:type
           rdf:resource="http://purl.org/dc/dcmitype/StillImage" />
        <dc:title />
      </cc:Work>
    </rdf:RDF>
  </metadata>
  <g
     id="layer1"
     inkscape:label="Layer 1"
     inkscape:groupmode="layer">
    <path
       sodipodi:type="arc"
       style="opacity:0.5;fill:url(#radialGradient3502);fill-opacity:1;fill-rule:evenodd;stroke:none"
       id="path2290"
       sodipodi:cx="18.66226"
       sodipodi:cy="41.416107"
       sodipodi:rx="21.030567"
       sodipodi:ry="10.183721"
       d="m 39.692827,41.416107 a 21.030567,10.183721 0 1 1 -42.0611341,0 21.030567,10.183721 0 1 1 42.0611341,0 z"
       transform="matrix(1.141197,0,0,0.834666,2.702705,4.9313782)" />
    <path
       sodipodi:type="arc"
       style="opacity:0.6;fill:none;stroke:none"
       id="path2775"
       sodipodi:cx="26.492901"
       sodipodi:cy="18.894651"
       sodipodi:rx="6.330162"
       sodipodi:ry="2.1770399"
       d="m 32.823063,18.894651 a 6.330162,2.1770399 0 1 1 -12.660324,0 6.330162,2.1770399 0 1 1 12.660324,0 z"
       transform="matrix(0.632511,0,0,0.687532,24.766131,26.012525)" />
    <path
       sodipodi:type="arc"
       style="opacity:0.6;fill:none;stroke:none"
       id="path2779"
       sodipodi:cx="26.492901"
       sodipodi:cy="18.894651"
       sodipodi:rx="6.330162"
       sodipodi:ry="2.1770399"
       d="m 32.823063,18.894651 a 6.330162,2.1770399 0 1 1 -12.660324,0 6.330162,2.1770399 0 1 1 12.660324,0 z"
       transform="matrix(0.632511,0,0,0.687532,24.775771,24.018955)" />
    <rect
       style="fill:#eeeeec;fill-opacity:1;fill-rule:evenodd;stroke:#555753;stroke-width:1.00000036;stroke-miterlimit:4;stroke-opacity:1;stroke-dasharray:none"
       id="rect1354"
       width="35.041153"
       height="34.99564"
       x="6.4726911"
       y="2.5016134"
       rx="2.0000002"
       ry="2.0000021" />
    <rect
       style="fill:url(#radialGradient2655);fill-opacity:1;fill-rule:evenodd;stroke:none"
       id="rect2229"
       width="29.973732"
       height="25"
       x="9.026269"
       y="5.9999852"
       rx="1.6250001"
       ry="1.6250001" />
    <path
       sodipodi:type="arc"
       style="opacity:0.6;fill:none;stroke:none"
       id="path2783"
       sodipodi:cx="26.492901"
       sodipodi:cy="18.894651"
       sodipodi:rx="6.330162"
       sodipodi:ry="2.1770399"
       d="m 32.823063,18.894651 a 6.330162,2.1770399 0 1 1 -12.660324,0 6.330162,2.1770399 0 1 1 12.660324,0 z"
       transform="matrix(0.632511,0,0,0.687532,24.775771,22.018955)" />
    <path
       style="fill:url(#radialGradient2629);fill-opacity:1;fill-rule:evenodd;stroke:none"
       d="m 14.031252,5.9999852 0,4 -4.03125,0 0,0.9999998 4.03125,0 0,4 -4.03125,0 0,1 4.03125,0 0,4 -4.03125,0 0,1 4.03125,0 0,4 -4.03125,0 0,1 4.03125,0 0,4 1,0 0,-4 4,0 0,4 1,0 0,-4 4,0 0,4 1,0 0,-4 4,0 0,4 1,0 0,-4 4,0 0,4 1,0 0,-4 3.96875,0 0,-1 -3.96875,0 0,-4 3.96875,0 0,-1 -3.96875,0 0,-4 3.96875,0 0,-1 -3.96875,0 0,-4 3.96875,0 0,-0.9999998 -3.96875,0 0,-4 -1,0 0,4 -4,0 0,-4 -1,0 0,4 -4,0 0,-4 -1,0 0,4 -4,0 0,-4 -1,0 0,4 -4,0 0,-4 -1,0 z m 1,4.9999998 4,0 0,4 -4,0 0,-4 z m 5,0 4,0 0,4 -4,0 0,-4 z m 5,0 4,0 0,4 -4,0 0,-4 z m 5,0 4,0 0,4 -4,0 0,-4 z m -15,5 4,0 0,4 -4,0 0,-4 z m 5,0 4,0 0,4 -4,0 0,-4 z m 5,0 4,0 0,4 -4,0 0,-4 z m 5,0 4,0 0,4 -4,0 0,-4 z m -15,5 4,0 0,4 -4,0 0,-4 z m 5,0 4,0 0,4 -4,0 0,-4 z m 5,0 4,0 0,4 -4,0 0,-4 z m 5,0 4,0 0,4 -4,0 0,-4 z"
       id="rect2281" />
    <path
       style="fill:url(#linearGradient2639);fill-opacity:1;fill-rule:evenodd;stroke:none"
       d="m 28.531252,12.999985 -4.883016,8.817147 -8.609782,-4.797282 -6.007202,9.480135 0.875,0.5 5.412175,-8.726766 8.70144,4.78125 5.386385,-9.554484 -0.875,-0.5 z"
       id="rect2293"
       sodipodi:nodetypes="ccccccccc" />
    <rect
       style="fill:#888a85;fill-opacity:1;fill-rule:evenodd;stroke:none"
       id="rect2600"
       width="1"
       height="30"
       x="29.999985"
       y="-39"
       transform="matrix(0,1,-1,0,0,0)" />
    <path
       sodipodi:type="arc"
       style="opacity:0.6;fill:none;stroke:none"
       id="path2787"
       sodipodi:cx="26.492901"
       sodipodi:cy="18.894651"
       sodipodi:rx="6.330162"
       sodipodi:ry="2.1770399"
       d="m 32.823063,18.894651 a 6.330162,2.1770399 0 1 1 -12.660324,0 6.330162,2.1770399 0 1 1 12.660324,0 z"
       transform="matrix(0.632511,0,0,0.687532,24.775771,20.012515)" />
    <rect
       style="fill:#888a85;fill-opacity:1;fill-rule:evenodd;stroke:none"
       id="rect2231"
       width="1"
       height="25"
       x="9.026269"
       y="5.9999852" />
    <path
       sodipodi:type="arc"
       style="opacity:0.6;fill:none;stroke:none"
       id="path2415"
       sodipodi:cx="26.492901"
       sodipodi:cy="18.894651"
       sodipodi:rx="6.330162"
       sodipodi:ry="2.1770399"
       d="m 32.823063,18.894651 a 6.330162,2.1770399 0 1 1 -12.660324,0 6.330162,2.1770399 0 1 1 12.660324,0 z"
       transform="matrix(0.632511,0,0,0.687532,19.756491,29.006095)" />
    <path
       sodipodi:type="arc"
       style="opacity:0.6;fill:none;stroke:none"
       id="path2791"
       sodipodi:cx="26.492901"
       sodipodi:cy="18.894651"
       sodipodi:rx="6.330162"
       sodipodi:ry="2.1770399"
       d="m 32.823063,18.894651 a 6.330162,2.1770399 0 1 1 -12.660324,0 6.330162,2.1770399 0 1 1 12.660324,0 z"
       transform="matrix(0.632511,0,0,0.687532,24.775771,18.012525)" />
    <path
       sodipodi:type="arc"
       style="opacity:0.6;fill:none;stroke:none"
       id="path2419"
       sodipodi:cx="26.492901"
       sodipodi:cy="18.894651"
       sodipodi:rx="6.330162"
       sodipodi:ry="2.1770399"
       d="m 32.823063,18.894651 a 6.330162,2.1770399 0 1 1 -12.660324,0 6.330162,2.1770399 0 1 1 12.660324,0 z"
       transform="matrix(0.632511,0,0,0.687532,19.766131,27.012525)" />
    <path
       sodipodi:type="arc"
       style="opacity:0.6;fill:none;stroke:none"
       id="path2423"
       sodipodi:cx="26.492901"
       sodipodi:cy="18.894651"
       sodipodi:rx="6.330162"
       sodipodi:ry="2.1770399"
       d="m 32.823063,18.894651 a 6.330162,2.1770399 0 1 1 -12.660324,0 6.330162,2.1770399 0 1 1 12.660324,0 z"
       transform="matrix(0.632511,0,0,0.687532,19.766131,25.012525)" />
    <path
       sodipodi:type="arc"
       style="opacity:0.6;fill:none;stroke:none"
       id="path2427"
       sodipodi:cx="26.492901"
       sodipodi:cy="18.894651"
       sodipodi:rx="6.330162"
       sodipodi:ry="2.1770399"
       d="m 32.823063,18.894651 a 6.330162,2.1770399 0 1 1 -12.660324,0 6.330162,2.1770399 0 1 1 12.660324,0 z"
       transform="matrix(0.632511,0,0,0.687532,19.766131,23.006085)" />
    <path
       sodipodi:type="arc"
       style="opacity:0.6;fill:none;stroke:none"
       id="path2431"
       sodipodi:cx="26.492901"
       sodipodi:cy="18.894651"
       sodipodi:rx="6.330162"
       sodipodi:ry="2.1770399"
       d="m 32.823063,18.894651 a 6.330162,2.1770399 0 1 1 -12.660324,0 6.330162,2.1770399 0 1 1 12.660324,0 z"
       transform="matrix(0.632511,0,0,0.687532,19.766131,21.006095)" />
    <path
       style="opacity:0.2;fill:#ffffff;fill-opacity:1;fill-rule:evenodd;stroke:none"
       d="m 9.000002,5.9999852 30,0 c -12.160656,3.9101256 -11.337571,17.9999998 -30,17.9999998 l 0,-17.9999998 z"
       id="rect2743"
       sodipodi:nodetypes="cccc" />
  </g>
</svg>
